# UnrealEd OBJ exporter (_Internal)



v -1648.000000 -448.000000 432.000000

v -1648.000000 -512.000000 432.000000

v -1408.000000 -512.000000 672.000000

v 511.996094 -448.000000 128.000000

v 511.996094 -448.000000 192.000000

v 511.996094 -512.000000 128.000000

v 1632.000000 -512.000000 416.000000

v 1632.000000 -448.000000 416.000000

v 1648.000000 -448.000000 432.000000

v 1648.000000 -512.000000 432.000000

v 1648.000000 -512.000000 432.000000

v 1648.000000 -448.000000 432.000000

v 1408.000000 -448.000000 672.000000

v 1408.000000 -512.000000 672.000000

v 1408.000000 -512.000000 672.000000

v 1408.000000 -448.000000 672.000000

v 1392.000000 -448.000000 656.000000

v 1392.000000 -512.000000 656.000000

v 1392.000000 -512.000000 656.000000

v 1392.000000 -448.000000 656.000000

v 1632.000000 -448.000000 416.000000

v 1632.000000 -512.000000 416.000000

v 1392.000000 -448.000000 656.000000

v 1408.000000 -448.000000 672.000000

v 1648.000000 -448.000000 432.000000

v 1632.000000 -448.000000 416.000000

v 1392.000000 -512.000000 656.000000

v 1632.000000 -512.000000 416.000000

v 1648.000000 -512.000000 432.000000

v 1408.000000 -512.000000 672.000000

v -1648.000000 -448.000000 432.000000

v -1408.000000 -448.000000 672.000000

v -1632.000000 -448.000000 416.000000

v -1392.000000 -448.000000 656.000000

v 511.996094 -512.000000 192.000000

v 0.000000 -512.000000 192.000000

v 0.000000 -512.000000 128.000000

v 511.996094 -512.000000 128.000000

v -511.995972 -512.000000 192.000000

v -511.995972 -448.000000 192.000000

v -511.995972 -448.000000 128.000000

v -1632.000000 -512.000000 416.000000

v -1392.000000 -512.000000 656.000000

v -1408.000000 -512.000000 672.000000

v -1632.000000 -448.000000 416.000000

v -1632.000000 -512.000000 416.000000

v -1648.000000 -512.000000 432.000000

v -1648.000000 -448.000000 432.000000

v 511.996094 -512.000000 192.000000

v -1408.000000 -448.000000 672.000000

v -1408.000000 -448.000000 672.000000

v -1408.000000 -512.000000 672.000000

v -1392.000000 -512.000000 656.000000

v -1392.000000 -448.000000 656.000000

v -1392.000000 -448.000000 656.000000

v -1392.000000 -512.000000 656.000000

v -1632.000000 -512.000000 416.000000

v -1632.000000 -448.000000 416.000000

v 0.000000 -512.000000 128.000000

v 0.000000 -512.000000 192.000000

v -511.995972 -512.000000 128.000000

v -1648.000000 -512.000000 432.000000

v -511.995972 -512.000000 128.000000

v -511.995972 -512.000000 192.000000

v 0.000000 -512.000000 128.000000

v -511.995972 -512.000000 128.000000

v 0.000000 -448.000000 128.000000

v 0.000000 -512.000000 192.000000

v 0.000000 -448.000000 192.000000

v -511.995972 -448.000000 192.000000

v -511.995972 -512.000000 192.000000

v -511.995972 -448.000000 128.000000

v 511.996094 -448.000000 192.000000

v 0.000000 -448.000000 192.000000

v 511.996094 -512.000000 192.000000

v 511.996094 -448.000000 128.000000

v 0.000000 -448.000000 128.000000

v 511.996094 -448.000000 192.000000

v 0.000000 -448.000000 192.000000

v 0.000000 -512.000000 192.000000

v 0.000000 -448.000000 192.000000

v 0.000000 -448.000000 128.000000

v -511.995972 -448.000000 128.000000

v -511.995972 -448.000000 192.000000

v 511.996094 -448.000000 128.000000

v 511.996094 -512.000000 128.000000

v 0.000000 -512.000000 128.000000

v 0.000000 -448.000000 128.000000



vt 1.443359 1.375000

vt 1.443359 1.875000

vt -1.207031 1.875000

vt 2048.000000 2049.000000

vt 2047.000000 2049.000000

vt 2048.000000 2049.000000

vt 0.210083 1.875000

vt 0.210083 1.375000

vt 0.033386 1.375000

vt 0.033386 1.875000

vt 1.443359 1.875000

vt 1.443359 1.375000

vt -1.207031 1.375000

vt -1.207031 1.875000

vt -0.033386 1.875000

vt -0.033386 1.375000

vt -0.210083 1.375000

vt -0.210083 1.875000

vt 1.207031 1.875000

vt 1.207031 1.375000

vt -1.443359 1.375000

vt -1.443359 1.875000

vt 0.705078 2.001953

vt 0.830078 1.877441

vt -1.043945 0.002930

vt -1.168945 0.127930

vt -0.705078 2.001953

vt 1.168945 0.127930

vt 1.043945 0.002930

vt -0.830078 1.877441

vt -1.043945 0.002930

vt 0.830078 1.877441

vt -1.168945 0.127930

vt 0.705078 2.001953

vt 0.000000 -13.000000

vt 0.000000 -9.000000

vt -0.500000 -9.000000

vt -0.500000 -13.000000

vt 2047.000000 2049.000000

vt 2047.000000 2049.000000

vt 2048.000000 2049.000000

vt 1.168945 0.127930

vt -0.705078 2.001953

vt -0.830078 1.877441

vt 0.210083 1.375000

vt 0.210083 1.875000

vt 0.033386 1.875000

vt 0.033386 1.375000

vt 2047.000000 2049.000000

vt -1.207031 1.375000

vt -0.033386 1.375000

vt -0.033386 1.875000

vt -0.210083 1.875000

vt -0.210083 1.375000

vt 1.207031 1.375000

vt 1.207031 1.875000

vt -1.443359 1.875000

vt -1.443359 1.375000

vt -0.500000 -9.000000

vt 0.000000 -9.000000

vt -0.500000 -13.000000

vt 1.043945 0.002930

vt 2048.000000 2049.000000

vt 0.000000 -13.000000

vt -2.998047 1.000000

vt -0.999512 1.000000

vt -2.998047 1.250000

vt 1.000000 -9.000000

vt 0.500000 -9.000000

vt 0.500000 -13.000000

vt 1.000000 -13.000000

vt -0.999512 1.250000

vt 0.500000 -13.000000

vt 0.500000 -9.000000

vt 1.000000 -13.000000

vt 1.000000 0.500000

vt 3.000000 0.500000

vt 1.000000 0.250000

vt 3.000000 0.250000

vt 1.000000 -9.000000

vt 2.998047 0.250000

vt 2.998047 0.500000

vt 1.000000 0.500000

vt 1.000000 0.250000

vt -0.999512 1.250000

vt -0.999512 1.000000

vt -2.998047 1.000000

vt -2.998047 1.250000



vn -0.709804 -0.003922 0.701961

vn -0.709804 -0.003922 0.701961

vn -0.709804 -0.003922 0.701961

vn 1.000000 -0.003922 -0.003922

vn 1.000000 -0.003922 -0.003922

vn 1.000000 -0.003922 -0.003922

vn 0.701961 -0.003922 -0.709804

vn 0.701961 -0.003922 -0.709804

vn 0.701961 -0.003922 -0.709804

vn 0.701961 -0.003922 -0.709804

vn 0.701961 -0.003922 0.701961

vn 0.701961 -0.003922 0.701961

vn 0.701961 -0.003922 0.701961

vn 0.701961 -0.003922 0.701961

vn -0.709804 -0.003922 0.701961

vn -0.709804 -0.003922 0.701961

vn -0.709804 -0.003922 0.701961

vn -0.709804 -0.003922 0.701961

vn -0.709804 -0.003922 -0.709804

vn -0.709804 -0.003922 -0.709804

vn -0.709804 -0.003922 -0.709804

vn -0.709804 -0.003922 -0.709804

vn -0.003922 1.000000 -0.003922

vn -0.003922 1.000000 -0.003922

vn -0.003922 1.000000 -0.003922

vn -0.003922 1.000000 -0.003922

vn -0.003922 -1.000000 -0.003922

vn -0.003922 -1.000000 -0.003922

vn -0.003922 -1.000000 -0.003922

vn -0.003922 -1.000000 -0.003922

vn -0.003922 1.000000 -0.003922

vn -0.003922 1.000000 -0.003922

vn -0.003922 1.000000 -0.003922

vn -0.003922 1.000000 -0.003922

vn -0.003922 -1.000000 -0.003922

vn -0.003922 -1.000000 -0.003922

vn -0.003922 -1.000000 -0.003922

vn -0.003922 -1.000000 -0.003922

vn -1.000000 -0.003922 -0.003922

vn -1.000000 -0.003922 -0.003922

vn -1.000000 -0.003922 -0.003922

vn -0.003922 -1.000000 -0.003922

vn -0.003922 -1.000000 -0.003922

vn -0.003922 -1.000000 -0.003922

vn -0.709804 -0.003922 -0.709804

vn -0.709804 -0.003922 -0.709804

vn -0.709804 -0.003922 -0.709804

vn -0.709804 -0.003922 -0.709804

vn 1.000000 -0.003922 -0.003922

vn -0.709804 -0.003922 0.701961

vn 0.701961 -0.003922 0.701961

vn 0.701961 -0.003922 0.701961

vn 0.701961 -0.003922 0.701961

vn 0.701961 -0.003922 0.701961

vn 0.701961 -0.003922 -0.709804

vn 0.701961 -0.003922 -0.709804

vn 0.701961 -0.003922 -0.709804

vn 0.701961 -0.003922 -0.709804

vn -0.003922 -1.000000 -0.003922

vn -0.003922 -1.000000 -0.003922

vn -0.003922 -1.000000 -0.003922

vn -0.003922 -1.000000 -0.003922

vn -1.000000 -0.003922 -0.003922

vn -0.003922 -1.000000 -0.003922

vn -0.003922 -0.003922 -1.000000

vn -0.003922 -0.003922 -1.000000

vn -0.003922 -0.003922 -1.000000

vn -0.003922 -0.003922 1.000000

vn -0.003922 -0.003922 1.000000

vn -0.003922 -0.003922 1.000000

vn -0.003922 -0.003922 1.000000

vn -0.003922 -0.003922 -1.000000

vn -0.003922 -0.003922 1.000000

vn -0.003922 -0.003922 1.000000

vn -0.003922 -0.003922 1.000000

vn -0.003922 1.000000 -0.003922

vn -0.003922 1.000000 -0.003922

vn -0.003922 1.000000 -0.003922

vn -0.003922 1.000000 -0.003922

vn -0.003922 -0.003922 1.000000

vn -0.003922 1.000000 -0.003922

vn -0.003922 1.000000 -0.003922

vn -0.003922 1.000000 -0.003922

vn -0.003922 1.000000 -0.003922

vn -0.003922 -0.003922 -1.000000

vn -0.003922 -0.003922 -1.000000

vn -0.003922 -0.003922 -1.000000

vn -0.003922 -0.003922 -1.000000

f 1/1/1 2/2/2 3/3/3

f 50/50/50 1/1/1 3/3/3

f 59/59/59 60/60/60 61/61/61

f 60/60/60 64/64/64 61/61/61

f 31/31/31 32/32/32 33/33/33

f 32/32/32 34/34/34 33/33/33

f 4/4/4 5/5/5 6/6/6

f 5/5/5 49/49/49 6/6/6

f 7/7/7 8/8/8 9/9/9

f 10/10/10 7/7/7 9/9/9

f 11/11/11 12/12/12 13/13/13

f 14/14/14 11/11/11 13/13/13

f 15/15/15 16/16/16 17/17/17

f 18/18/18 15/15/15 17/17/17

f 19/19/19 20/20/20 21/21/21

f 22/22/22 19/19/19 21/21/21

f 23/23/23 24/24/24 25/25/25

f 26/26/26 23/23/23 25/25/25

f 27/27/27 28/28/28 29/29/29

f 30/30/30 27/27/27 29/29/29

f 35/35/35 36/36/36 37/37/37

f 38/38/38 35/35/35 37/37/37

f 39/39/39 40/40/40 41/41/41

f 63/63/63 39/39/39 41/41/41

f 42/42/42 43/43/43 44/44/44

f 62/62/62 42/42/42 44/44/44

f 45/45/45 46/46/46 47/47/47

f 48/48/48 45/45/45 47/47/47

f 51/51/51 52/52/52 53/53/53

f 54/54/54 51/51/51 53/53/53

f 55/55/55 56/56/56 57/57/57

f 58/58/58 55/55/55 57/57/57

f 65/65/65 66/66/66 67/67/67

f 66/66/66 72/72/72 67/67/67

f 76/76/76 77/77/77 78/78/78

f 77/77/77 79/79/79 78/78/78

f 73/73/73 74/74/74 75/75/75

f 74/74/74 80/80/80 75/75/75

f 68/68/68 69/69/69 70/70/70

f 71/71/71 68/68/68 70/70/70

f 81/81/81 82/82/82 83/83/83

f 84/84/84 81/81/81 83/83/83

f 85/85/85 86/86/86 87/87/87

f 88/88/88 85/85/85 87/87/87

